Wilmette-Italic.ufo
<glyph name="ampersand" format="1">
  <advance width="1007.01448683"/>
  <unicode hex="0026"/>
  <outline>
    <contour>
      <point x="419" y="751" type="curve" smooth="yes"/>
      <point x="369" y="751"/>
      <point x="154" y="710"/>
      <point x="157" y="550" type="curve" smooth="yes"/>
      <point x="159" y="447"/>
      <point x="200" y="453"/>
      <point x="200" y="453" type="curve"/>
      <point x="200" y="453"/>
      <point x="-7" y="399"/>
      <point x="0" y="203" type="curve" smooth="yes"/>
      <point x="7" y="7"/>
      <point x="226" y="-51"/>
      <point x="370" y="-50" type="curve" smooth="yes"/>
      <point x="514" y="-49"/>
      <point x="786" y="39"/>
      <point x="783" y="246" type="curve" smooth="yes"/>
      <point x="782" y="324"/>
      <point x="754" y="352"/>
      <point x="754" y="352" type="curve"/>
      <point x="754" y="352"/>
      <point x="800" y="316"/>
      <point x="871" y="316" type="curve" smooth="yes"/>
      <point x="942" y="316"/>
      <point x="1006" y="391"/>
      <point x="1007" y="460" type="curve" smooth="yes"/>
      <point x="1008" y="529"/>
      <point x="957" y="573"/>
      <point x="925" y="573" type="curve" smooth="yes"/>
      <point x="893" y="573"/>
      <point x="876" y="555"/>
      <point x="877" y="526" type="curve" smooth="yes"/>
      <point x="878" y="497"/>
      <point x="907" y="487"/>
      <point x="925" y="487" type="curve" smooth="yes"/>
      <point x="943" y="487"/>
      <point x="976" y="475"/>
      <point x="970" y="437" type="curve" smooth="yes"/>
      <point x="964" y="399"/>
      <point x="946" y="377"/>
      <point x="907" y="380" type="curve" smooth="yes"/>
      <point x="868" y="383"/>
      <point x="727" y="482"/>
      <point x="599" y="482" type="curve" smooth="yes"/>
      <point x="471" y="482"/>
      <point x="420" y="391"/>
      <point x="420" y="308" type="curve" smooth="yes"/>
      <point x="420" y="245"/>
      <point x="465" y="187"/>
      <point x="514" y="193" type="curve" smooth="yes"/>
      <point x="563" y="199"/>
      <point x="556" y="221"/>
      <point x="556" y="240" type="curve" smooth="yes"/>
      <point x="555" y="302"/>
      <point x="455" y="291"/>
      <point x="457" y="340" type="curve" smooth="yes"/>
      <point x="459" y="393"/>
      <point x="511" y="422"/>
      <point x="575" y="422" type="curve" smooth="yes"/>
      <point x="639" y="422"/>
      <point x="743" y="362"/>
      <point x="745" y="258" type="curve" smooth="yes"/>
      <point x="747" y="154"/>
      <point x="595" y="20"/>
      <point x="397" y="23" type="curve" smooth="yes"/>
      <point x="199" y="26"/>
      <point x="102" y="153"/>
      <point x="100" y="254" type="curve" smooth="yes"/>
      <point x="98" y="355"/>
      <point x="208" y="448"/>
      <point x="356" y="441" type="curve"/>
      <point x="367" y="469" type="line"/>
      <point x="367" y="469"/>
      <point x="244" y="481"/>
      <point x="247" y="571" type="curve" smooth="yes"/>
      <point x="250" y="661"/>
      <point x="344" y="716"/>
      <point x="418" y="715" type="curve" smooth="yes"/>
      <point x="516" y="714"/>
      <point x="500" y="597"/>
      <point x="559" y="597" type="curve" smooth="yes"/>
      <point x="606" y="597"/>
      <point x="604" y="623"/>
      <point x="607" y="644" type="curve" smooth="yes"/>
      <point x="610" y="665"/>
      <point x="560" y="750"/>
    </contour>
  </outline>
</glyph>
<glyph name="A" format="1">
  <advance width="715"/>
  <unicode hex="0041"/>
  <outline>
    <contour>
      <point x="726" y="0" type="line"/>
      <point x="732" y="30" type="line"/>
      <point x="732" y="30"/>
      <point x="637" y="25"/>
      <point x="645" y="99" type="curve" smooth="yes"/>
      <point x="656" y="199"/>
      <point x="706" y="706"/>
      <point x="706" y="706" type="curve"/>
      <point x="614" y="706" type="line"/>
      <point x="177" y="184" type="line"/>
      <point x="177" y="184"/>
      <point x="83" y="34"/>
      <point x="3" y="34" type="curve"/>
      <point x="0" y="-1" type="line"/>
      <point x="243" y="-1" type="line"/>
      <point x="254" y="35" type="line"/>
      <point x="254" y="35"/>
      <point x="190" y="46"/>
      <point x="188" y="88" type="curve" smooth="yes"/>
      <point x="186" y="130"/>
      <point x="639" y="659"/>
      <point x="639" y="659" type="curve"/>
      <point x="604" y="659" type="line"/>
      <point x="552" y="133" type="line"/>
      <point x="552" y="133"/>
      <point x="559" y="49"/>
      <point x="445" y="35" type="curve"/>
      <point x="435" y="-4" type="line"/>
    </contour>
    <contour>
      <point x="294" y="282" type="line"/>
      <point x="584" y="282" type="line"/>
      <point x="600" y="327" type="line"/>
      <point x="333" y="327" type="line"/>
    </contour>
  </outline>
</glyph>
<glyph name="D" format="1">
  <advance width="751"/>
  <unicode hex="0044"/>
  <outline>
    <contour>
      <point x="166" y="700" type="line"/>
      <point x="155" y="665" type="line"/>
      <point x="221" y="665"/>
      <point x="245" y="629"/>
      <point x="229" y="571" type="curve" smooth="yes"/>
      <point x="108" y="121" type="line"/>
      <point x="88" y="67"/>
      <point x="62" y="45"/>
      <point x="9" y="35" type="curve"/>
      <point x="0" y="0" type="line"/>
      <point x="389" y="-2" type="line"/>
      <point x="538" y="-6"/>
      <point x="771" y="126"/>
      <point x="771" y="391" type="curve" smooth="yes"/>
      <point x="771" y="656"/>
      <point x="570" y="700"/>
      <point x="457" y="700" type="curve" smooth="yes"/>
    </contour>
    <contour>
      <point x="323" y="660" type="line"/>
      <point x="425" y="660" type="line" smooth="yes"/>
      <point x="554" y="660"/>
      <point x="661" y="555"/>
      <point x="661" y="402" type="curve" smooth="yes"/>
      <point x="661" y="224"/>
      <point x="547" y="25"/>
      <point x="324" y="38" type="curve" smooth="yes"/>
      <point x="241" y="43"/>
      <point x="215" y="60"/>
      <point x="215" y="117" type="curve" smooth="yes"/>
      <point x="215" y="161"/>
      <point x="359" y="673"/>
      <point x="359" y="673" type="curve"/>
    </contour>
  </outline>
</glyph>
<glyph name="E" format="1">
  <advance width="679.109557348"/>
  <unicode hex="0045"/>
  <outline>
    <contour>
      <point x="181" y="697" type="line"/>
      <point x="168" y="665" type="line"/>
      <point x="239" y="640"/>
      <point x="255" y="611"/>
      <point x="236" y="543" type="curve" smooth="yes"/>
      <point x="211" y="454"/>
      <point x="169" y="225"/>
      <point x="130" y="121" type="curve"/>
      <point x="94" y="58"/>
      <point x="62" y="43"/>
      <point x="21" y="34" type="curve" smooth="yes"/>
      <point x="-20" y="25"/>
      <point x="11" y="-2"/>
      <point x="11" y="-2" type="curve"/>
      <point x="587" y="0" type="line"/>
      <point x="660" y="165" type="line"/>
      <point x="620" y="186" type="line"/>
      <point x="620" y="186"/>
      <point x="542" y="34"/>
      <point x="368" y="44" type="curve" smooth="yes"/>
      <point x="194" y="54"/>
      <point x="241" y="71"/>
      <point x="237" y="112" type="curve" smooth="yes"/>
      <point x="233" y="153"/>
      <point x="379" y="679"/>
      <point x="379" y="679" type="curve"/>
      <point x="318" y="662" type="line"/>
      <point x="591" y="656" type="line"/>
      <point x="591" y="656"/>
      <point x="668" y="595"/>
      <point x="646" y="540" type="curve"/>
      <point x="682" y="536" type="line"/>
      <point x="716" y="647" type="line"/>
      <point x="725" y="671"/>
      <point x="714" y="695"/>
      <point x="689" y="697" type="curve"/>
    </contour>
    <contour>
      <point x="260" y="382" type="line"/>
      <point x="240" y="344" type="line"/>
      <point x="240" y="344"/>
      <point x="376" y="344"/>
      <point x="461" y="344" type="curve" smooth="yes"/>
      <point x="546" y="344"/>
      <point x="522" y="243"/>
      <point x="522" y="243" type="curve"/>
      <point x="557" y="237" type="line"/>
      <point x="622" y="469" type="line"/>
      <point x="586" y="475" type="line"/>
      <point x="579" y="401"/>
      <point x="480" y="389"/>
      <point x="480" y="389" type="curve"/>
    </contour>
  </outline>
</glyph>
<glyph name="G" format="1">
  <advance width="667"/>
  <unicode hex="0047"/>
  <outline>
    <contour>
      <point x="654" y="486" type="curve"/>
      <point x="692" y="478" type="line"/>
      <point x="732" y="641" type="line"/>
      <point x="732" y="641"/>
      <point x="633" y="712"/>
      <point x="483" y="712" type="curve" smooth="yes"/>
      <point x="325" y="712"/>
      <point x="2" y="572"/>
      <point x="0" y="288" type="curve" smooth="yes"/>
      <point x="-2" y="37"/>
      <point x="219" y="-13"/>
      <point x="312" y="-13" type="curve" smooth="yes"/>
      <point x="416" y="-13"/>
      <point x="571" y="43"/>
      <point x="571" y="43" type="curve"/>
      <point x="622" y="232" type="line"/>
      <point x="622" y="232"/>
      <point x="652" y="320"/>
      <point x="722" y="325" type="curve"/>
      <point x="737" y="358" type="line"/>
      <point x="444" y="359" type="line"/>
      <point x="430" y="322" type="line"/>
      <point x="430" y="322"/>
      <point x="520" y="311"/>
      <point x="515" y="235" type="curve" smooth="yes"/>
      <point x="510" y="159"/>
      <point x="474" y="47"/>
      <point x="474" y="47" type="curve"/>
      <point x="505" y="81" type="line"/>
      <point x="505" y="81"/>
      <point x="412" y="25"/>
      <point x="326" y="27" type="curve" smooth="yes"/>
      <point x="240" y="29"/>
      <point x="115" y="102"/>
      <point x="118" y="249" type="curve" smooth="yes"/>
      <point x="121" y="420"/>
      <point x="213" y="673"/>
      <point x="452" y="671" type="curve" smooth="yes"/>
      <point x="646" y="669"/>
      <point x="658" y="486"/>
    </contour>
  </outline>
</glyph>
<glyph name="H" format="1">
  <advance width="500"/>
  <unicode hex="0048"/>
  <outline>
    <contour>
      <point x="-76" y="699" type="line"/>
      <point x="-87" y="664" type="line"/>
      <point x="-40" y="660"/>
      <point x="-2" y="636"/>
      <point x="-18" y="573" type="curve" smooth="yes"/>
      <point x="-129" y="129" type="line" smooth="yes"/>
      <point x="-144" y="69"/>
      <point x="-177" y="45"/>
      <point x="-245" y="34" type="curve"/>
      <point x="-252" y="0" type="line"/>
      <point x="28" y="3" type="line"/>
      <point x="41" y="34" type="line"/>
      <point x="-2" y="37"/>
      <point x="-34" y="36"/>
      <point x="-36" y="91" type="curve"/>
      <point x="84" y="547" type="line" smooth="yes"/>
      <point x="103" y="620"/>
      <point x="124" y="655"/>
      <point x="201" y="659" type="curve"/>
      <point x="212" y="699" type="line"/>
    </contour>
    <contour>
      <point x="374" y="699" type="line"/>
      <point x="363" y="664" type="line"/>
      <point x="410" y="660"/>
      <point x="448" y="636"/>
      <point x="432" y="573" type="curve" smooth="yes"/>
      <point x="321" y="129" type="line" smooth="yes"/>
      <point x="306" y="69"/>
      <point x="273" y="45"/>
      <point x="205" y="34" type="curve"/>
      <point x="198" y="0" type="line"/>
      <point x="478" y="3" type="line"/>
      <point x="491" y="34" type="line"/>
      <point x="448" y="37"/>
      <point x="416" y="36"/>
      <point x="414" y="91" type="curve"/>
      <point x="534" y="547" type="line" smooth="yes"/>
      <point x="553" y="620"/>
      <point x="574" y="655"/>
      <point x="651" y="659" type="curve"/>
      <point x="662" y="699" type="line"/>
    </contour>
    <contour>
      <point x="-28" y="336" type="line"/>
      <point x="429" y="336" type="line"/>
      <point x="429" y="384" type="line"/>
      <point x="-28" y="384" type="line"/>
    </contour>
  </outline>
</glyph>
<glyph name="J" format="1">
  <advance width="547.046997791"/>
  <unicode hex="004A"/>
  <outline>
    <contour>
      <point x="51" y="-79" type="curve"/>
      <point x="11" y="-80"/>
      <point x="-3" y="-94"/>
      <point x="1" y="-124" type="curve" smooth="yes"/>
      <point x="5" y="-154"/>
      <point x="32" y="-193"/>
      <point x="98" y="-197" type="curve" smooth="yes"/>
      <point x="232" y="-206"/>
      <point x="344" y="-148"/>
      <point x="392" y="-5" type="curve" smooth="yes"/>
      <point x="440" y="138"/>
      <point x="579" y="632"/>
      <point x="579" y="632" type="curve"/>
      <point x="535" y="571" type="line"/>
      <point x="535" y="571"/>
      <point x="646" y="587"/>
      <point x="647" y="653" type="curve" smooth="yes"/>
      <point x="648" y="699"/>
      <point x="633" y="712"/>
      <point x="606" y="710" type="curve" smooth="yes"/>
      <point x="554" y="706"/>
      <point x="507" y="594"/>
      <point x="507" y="594" type="curve"/>
      <point x="540" y="607" type="line"/>
      <point x="540" y="607"/>
      <point x="516" y="610"/>
      <point x="484" y="625" type="curve" smooth="yes"/>
      <point x="427" y="652"/>
      <point x="409" y="712"/>
      <point x="343" y="713" type="curve" smooth="yes"/>
      <point x="277" y="714"/>
      <point x="179" y="661"/>
      <point x="182" y="557" type="curve" smooth="yes"/>
      <point x="185" y="453"/>
      <point x="224" y="464"/>
      <point x="249" y="464" type="curve" smooth="yes"/>
      <point x="274" y="464"/>
      <point x="307" y="485"/>
      <point x="307" y="522" type="curve" smooth="yes"/>
      <point x="307" y="559"/>
      <point x="242" y="567"/>
      <point x="242" y="596" type="curve" smooth="yes"/>
      <point x="242" y="625"/>
      <point x="259" y="637"/>
      <point x="285" y="637" type="curve" smooth="yes"/>
      <point x="338" y="637"/>
      <point x="351" y="592"/>
      <point x="406" y="569" type="curve" smooth="yes"/>
      <point x="451" y="549"/>
      <point x="503" y="550"/>
      <point x="507" y="556" type="curve" smooth="yes"/>
      <point x="515" y="569"/>
      <point x="490" y="582"/>
      <point x="490" y="582" type="curve"/>
      <point x="429" y="456" type="line"/>
      <point x="298" y="-7" type="line"/>
      <point x="298" y="-7"/>
      <point x="260" y="-146"/>
      <point x="166" y="-147" type="curve" smooth="yes"/>
      <point x="72" y="-148"/>
      <point x="107" y="-83"/>
    </contour>
    <contour>
      <point x="270" y="356" type="line"/>
      <point x="578" y="356" type="line"/>
      <point x="592" y="403" type="line"/>
      <point x="291" y="402" type="line"/>
    </contour>
  </outline>
</glyph>
<glyph name="M" format="1">
  <advance width="857"/>
  <unicode hex="004D"/>
  <outline>
    <contour>
      <point x="147" y="32" type="curve"/>
      <point x="140" y="2" type="line"/>
      <point x="-100" y="-3" type="line"/>
      <point x="-95" y="34" type="line"/>
      <point x="-95" y="34"/>
      <point x="-22" y="47"/>
      <point x="6" y="112" type="curve" smooth="yes"/>
      <point x="34" y="177"/>
      <point x="217" y="566"/>
      <point x="214" y="607" type="curve" smooth="yes"/>
      <point x="211" y="648"/>
      <point x="139" y="661"/>
      <point x="139" y="661" type="curve"/>
      <point x="151" y="697" type="line"/>
      <point x="354" y="693" type="line"/>
      <point x="354" y="693"/>
      <point x="338" y="641"/>
      <point x="339" y="611" type="curve" smooth="yes"/>
      <point x="340" y="581"/>
      <point x="407" y="164"/>
      <point x="403" y="135" type="curve" smooth="yes"/>
      <point x="399" y="106"/>
      <point x="376" y="119"/>
      <point x="376" y="119" type="curve"/>
      <point x="720" y="619" type="line"/>
      <point x="740" y="696" type="line"/>
      <point x="957" y="698" type="line"/>
      <point x="949" y="658" type="line"/>
      <point x="949" y="658"/>
      <point x="847" y="630"/>
      <point x="840" y="575" type="curve" smooth="yes"/>
      <point x="833" y="520"/>
      <point x="776" y="158"/>
      <point x="780" y="118" type="curve" smooth="yes"/>
      <point x="784" y="78"/>
      <point x="815" y="42"/>
      <point x="858" y="34" type="curve" smooth="yes"/>
      <point x="901" y="26"/>
      <point x="852" y="1"/>
      <point x="852" y="1" type="curve"/>
      <point x="580" y="1" type="line"/>
      <point x="580" y="35" type="line"/>
      <point x="580" y="35"/>
      <point x="682" y="52"/>
      <point x="686" y="103" type="curve" smooth="yes"/>
      <point x="690" y="154"/>
      <point x="743" y="622"/>
      <point x="743" y="622" type="curve"/>
      <point x="767" y="611" type="line"/>
      <point x="375" y="-3" type="line"/>
      <point x="328" y="-2" type="line"/>
      <point x="236" y="610" type="line"/>
      <point x="267" y="616" type="line"/>
      <point x="267" y="616"/>
      <point x="75" y="165"/>
      <point x="71" y="106" type="curve" smooth="yes"/>
      <point x="67" y="47"/>
      <point x="150" y="29"/>
    </contour>
  </outline>
</glyph>
<glyph name="S" format="1">
  <advance width="555"/>
  <unicode hex="0053"/>
  <outline>
    <contour>
      <point x="605" y="686" type="line"/>
      <point x="605" y="686"/>
      <point x="510" y="761"/>
      <point x="358" y="760" type="curve" smooth="yes"/>
      <point x="207" y="759"/>
      <point x="109" y="651"/>
      <point x="109" y="574" type="curve" smooth="yes"/>
      <point x="109" y="489"/>
      <point x="223" y="394"/>
      <point x="263" y="362" type="curve" smooth="yes"/>
      <point x="303" y="330"/>
      <point x="410" y="250"/>
      <point x="410" y="157" type="curve" smooth="yes"/>
      <point x="410" y="95"/>
      <point x="355" y="17"/>
      <point x="241" y="21" type="curve" smooth="yes"/>
      <point x="127" y="25"/>
      <point x="7" y="94"/>
      <point x="21" y="241" type="curve"/>
      <point x="-7" y="243" type="line"/>
      <point x="-50" y="76" type="line"/>
      <point x="-50" y="76"/>
      <point x="123" y="-16"/>
      <point x="254" y="-17" type="curve" smooth="yes"/>
      <point x="385" y="-18"/>
      <point x="498" y="87"/>
      <point x="500" y="190" type="curve" smooth="yes"/>
      <point x="503" y="315"/>
      <point x="411" y="373"/>
      <point x="352" y="428" type="curve" smooth="yes"/>
      <point x="316" y="462"/>
      <point x="202" y="523"/>
      <point x="204" y="619" type="curve" smooth="yes"/>
      <point x="205" y="684"/>
      <point x="265" y="728"/>
      <point x="355" y="728" type="curve" smooth="yes"/>
      <point x="539" y="728"/>
      <point x="538" y="538"/>
      <point x="538" y="538" type="curve"/>
      <point x="563" y="528" type="line"/>
    </contour>
  </outline>
</glyph>
<glyph name="a" format="1">
  <advance width="502"/>
  <unicode hex="0061"/>
  <outline>
    <contour>
      <point x="496" y="480" type="curve"/>
      <point x="460" y="480" type="line"/>
      <point x="411" y="404" type="line"/>
      <point x="434" y="404" type="line"/>
      <point x="434" y="404"/>
      <point x="419" y="486"/>
      <point x="325" y="486" type="curve" smooth="yes"/>
      <point x="201" y="486"/>
      <point x="0" y="291"/>
      <point x="0" y="132" type="curve" smooth="yes"/>
      <point x="0" y="-2"/>
      <point x="71" y="-16"/>
      <point x="107" y="-16" type="curve" smooth="yes"/>
      <point x="203" y="-16"/>
      <point x="310" y="101"/>
      <point x="362" y="235" type="curve"/>
      <point x="353" y="235" type="line"/>
      <point x="353" y="235"/>
      <point x="299" y="131"/>
      <point x="299" y="60" type="curve" smooth="yes"/>
      <point x="299" y="14"/>
      <point x="310" y="-10"/>
      <point x="350" y="-10" type="curve" smooth="yes"/>
      <point x="415" y="-10"/>
      <point x="492" y="91"/>
      <point x="492" y="132" type="curve"/>
      <point x="478" y="139" type="line"/>
      <point x="457" y="89"/>
      <point x="413" y="40"/>
      <point x="389" y="40" type="curve" smooth="yes"/>
      <point x="372" y="40"/>
      <point x="370" y="56"/>
      <point x="370" y="67" type="curve" smooth="yes"/>
      <point x="370" y="93"/>
      <point x="496" y="480"/>
    </contour>
    <contour>
      <point x="307" y="457" type="curve" smooth="yes"/>
      <point x="350" y="457"/>
      <point x="372" y="428"/>
      <point x="372" y="364" type="curve" smooth="yes"/>
      <point x="372" y="235"/>
      <point x="236" y="50"/>
      <point x="152" y="50" type="curve" smooth="yes"/>
      <point x="113" y="50"/>
      <point x="77" y="67"/>
      <point x="77" y="163" type="curve" smooth="yes"/>
      <point x="77" y="304"/>
      <point x="219" y="457"/>
    </contour>
  </outline>
</glyph>
<glyph name="d" format="1">
  <advance width="508"/>
  <unicode hex="0064"/>
  <outline>
    <contour>
      <point x="375" y="747" type="line"/>
      <point x="558" y="768" type="line"/>
      <point x="558" y="768"/>
      <point x="373" y="122"/>
      <point x="376" y="80" type="curve" smooth="yes"/>
      <point x="379" y="38"/>
      <point x="363" y="47"/>
      <point x="394" y="50" type="curve" smooth="yes"/>
      <point x="425" y="53"/>
      <point x="472" y="134"/>
      <point x="472" y="134" type="curve"/>
      <point x="508" y="123" type="line"/>
      <point x="508" y="123"/>
      <point x="421" y="-23"/>
      <point x="368" y="-24" type="curve" smooth="yes"/>
      <point x="250" y="-26"/>
      <point x="322" y="185"/>
      <point x="322" y="185" type="curve"/>
      <point x="356" y="185" type="line"/>
      <point x="356" y="185"/>
      <point x="271" y="-1"/>
      <point x="119" y="-17" type="curve" smooth="yes"/>
      <point x="35" y="-26"/>
      <point x="4" y="58"/>
      <point x="0" y="130" type="curve" smooth="yes"/>
      <point x="-4" y="202"/>
      <point x="154" y="495"/>
      <point x="293" y="492" type="curve" smooth="yes"/>
      <point x="432" y="489"/>
      <point x="417" y="400"/>
      <point x="417" y="400" type="curve"/>
      <point x="391" y="424" type="line"/>
      <point x="391" y="424"/>
      <point x="461" y="638"/>
      <point x="464" y="688" type="curve" smooth="yes"/>
      <point x="467" y="738"/>
      <point x="374" y="717"/>
      <point x="374" y="717" type="curve"/>
    </contour>
    <contour>
      <point x="276" y="450" type="curve" smooth="yes"/>
      <point x="210" y="453"/>
      <point x="90" y="218"/>
      <point x="90" y="171" type="curve" smooth="yes"/>
      <point x="90" y="124"/>
      <point x="72" y="62"/>
      <point x="151" y="64" type="curve" smooth="yes"/>
      <point x="267" y="67"/>
      <point x="354" y="281"/>
      <point x="356" y="363" type="curve" smooth="yes"/>
      <point x="358" y="445"/>
      <point x="342" y="447"/>
    </contour>
  </outline>
</glyph>
<glyph name="e" format="1">
  <advance width="348"/>
  <unicode hex="0065"/>
  <outline>
    <contour>
      <point x="261" y="486" type="curve" smooth="yes"/>
      <point x="146" y="486"/>
      <point x="-22" y="285"/>
      <point x="-22" y="134" type="curve" smooth="yes"/>
      <point x="-22" y="18"/>
      <point x="58" y="-10"/>
      <point x="112" y="-10" type="curve" smooth="yes"/>
      <point x="186" y="-10"/>
      <point x="268" y="38"/>
      <point x="318" y="135" type="curve"/>
      <point x="292" y="148" type="line"/>
      <point x="251" y="89"/>
      <point x="198" y="50"/>
      <point x="146" y="50" type="curve" smooth="yes"/>
      <point x="88" y="50"/>
      <point x="54" y="87"/>
      <point x="54" y="162" type="curve" smooth="yes"/>
      <point x="54" y="253"/>
      <point x="142" y="442"/>
      <point x="220" y="442" type="curve" smooth="yes"/>
      <point x="278" y="442"/>
      <point x="283" y="403"/>
      <point x="283" y="383" type="curve" smooth="yes"/>
      <point x="283" y="313"/>
      <point x="184" y="224"/>
      <point x="37" y="224" type="curve"/>
      <point x="27" y="206" type="line"/>
      <point x="171" y="206"/>
      <point x="348" y="282"/>
      <point x="348" y="401" type="curve" smooth="yes"/>
      <point x="348" y="445"/>
      <point x="326" y="486"/>
    </contour>
  </outline>
</glyph>
<glyph name="h" format="1">
  <advance width="444"/>
  <unicode hex="0068"/>
  <outline>
    <contour>
      <point x="236" y="750" type="line"/>
      <point x="61" y="750" type="line"/>
      <point x="40" y="714" type="line"/>
      <point x="110" y="714" type="line" smooth="yes"/>
      <point x="141" y="714"/>
      <point x="143" y="691"/>
      <point x="135" y="665" type="curve" smooth="yes"/>
      <point x="-66" y="0" type="line"/>
      <point x="11" y="0" type="line"/>
      <point x="37" y="89"/>
      <point x="207" y="442"/>
      <point x="326" y="442" type="curve" smooth="yes"/>
      <point x="351" y="442"/>
      <point x="348" y="435"/>
      <point x="351" y="419" type="curve" smooth="yes"/>
      <point x="354" y="403"/>
      <point x="228" y="92"/>
      <point x="234" y="43" type="curve" smooth="yes"/>
      <point x="240" y="-6"/>
      <point x="265" y="-17"/>
      <point x="285" y="-17" type="curve" smooth="yes"/>
      <point x="358" y="-17"/>
      <point x="444" y="127"/>
      <point x="444" y="127" type="curve"/>
      <point x="424" y="142" type="line"/>
      <point x="424" y="142"/>
      <point x="357" y="50"/>
      <point x="332" y="51" type="curve" smooth="yes"/>
      <point x="314" y="52"/>
      <point x="319" y="50"/>
      <point x="315" y="66" type="curve" smooth="yes"/>
      <point x="311" y="82"/>
      <point x="431" y="379"/>
      <point x="428" y="416" type="curve" smooth="yes"/>
      <point x="425" y="453"/>
      <point x="417" y="492"/>
      <point x="361" y="492" type="curve" smooth="yes"/>
      <point x="196" y="493"/>
      <point x="21" y="121"/>
      <point x="21" y="121" type="curve"/>
      <point x="44" y="120" type="line"/>
    </contour>
  </outline>
</glyph>
<glyph name="i" format="1">
  <advance width="271.434554176"/>
  <unicode hex="0069"/>
  <outline>
    <contour>
      <point x="121" y="455"/>
      <point x="164" y="490"/>
      <point x="226" y="490" type="curve" smooth="yes"/>
      <point x="270" y="490"/>
      <point x="288" y="438"/>
      <point x="265" y="380" type="curve" smooth="yes"/>
      <point x="163" y="122" type="line" smooth="yes"/>
      <point x="149" y="86"/>
      <point x="135" y="61"/>
      <point x="161" y="61" type="curve" smooth="yes"/>
      <point x="190" y="61"/>
      <point x="259" y="140"/>
      <point x="259" y="140" type="curve"/>
      <point x="280" y="129" type="line"/>
      <point x="280" y="129"/>
      <point x="192" y="-10"/>
      <point x="105" y="-10" type="curve" smooth="yes"/>
      <point x="47" y="-10"/>
      <point x="42" y="51"/>
      <point x="61" y="101" type="curve" smooth="yes"/>
      <point x="162" y="361" type="line" smooth="yes"/>
      <point x="179" y="404"/>
      <point x="185" y="432"/>
      <point x="165" y="432" type="curve" smooth="yes"/>
      <point x="142" y="432"/>
      <point x="121" y="416"/>
      <point x="89" y="377" type="curve"/>
      <point x="69" y="387" type="line"/>
    </contour>
    <contour>
      <point x="286" y="603" type="curve" smooth="yes"/>
      <point x="319" y="603"/>
      <point x="349" y="631"/>
      <point x="349" y="667" type="curve" smooth="yes"/>
      <point x="349" y="702"/>
      <point x="319" y="730"/>
      <point x="286" y="730" type="curve" smooth="yes"/>
      <point x="250" y="730"/>
      <point x="223" y="702"/>
      <point x="223" y="667" type="curve" smooth="yes"/>
      <point x="223" y="631"/>
      <point x="250" y="603"/>
    </contour>
  </outline>
</glyph>
<glyph name="l" format="1">
  <advance width="286.75147929"/>
  <unicode hex="006C"/>
  <outline>
    <contour>
      <point x="113" y="747" type="line"/>
      <point x="269" y="747" type="line"/>
      <point x="269" y="747"/>
      <point x="299" y="760"/>
      <point x="281" y="702" type="curve" smooth="yes"/>
      <point x="263" y="644"/>
      <point x="89" y="87"/>
      <point x="89" y="87" type="curve"/>
      <point x="89" y="87"/>
      <point x="69" y="56"/>
      <point x="104" y="56" type="curve" smooth="yes"/>
      <point x="139" y="56"/>
      <point x="203" y="141"/>
      <point x="203" y="141" type="curve"/>
      <point x="226" y="118" type="line"/>
      <point x="226" y="118"/>
      <point x="121" y="-21"/>
      <point x="53" y="-21" type="curve" smooth="yes"/>
      <point x="-15" y="-21"/>
      <point x="3" y="10"/>
      <point x="0" y="55" type="curve" smooth="yes"/>
      <point x="-3" y="100"/>
      <point x="189" y="623"/>
      <point x="184" y="675" type="curve" smooth="yes"/>
      <point x="179" y="727"/>
      <point x="100" y="712"/>
      <point x="100" y="712" type="curve"/>
    </contour>
  </outline>
</glyph>
<glyph name="o" format="1">
  <advance width="451"/>
  <unicode hex="006F"/>
  <outline>
    <contour>
      <point x="312" y="495" type="curve" smooth="yes"/>
      <point x="123" y="495"/>
      <point x="0" y="271"/>
      <point x="0" y="150" type="curve" smooth="yes"/>
      <point x="0" y="29"/>
      <point x="56" y="-10"/>
      <point x="142" y="-10" type="curve" smooth="yes"/>
      <point x="243" y="-10"/>
      <point x="438" y="94"/>
      <point x="438" y="330" type="curve" smooth="yes"/>
      <point x="438" y="451"/>
      <point x="361" y="495"/>
    </contour>
    <contour>
      <point x="268" y="450" type="curve" smooth="yes"/>
      <point x="336" y="449"/>
      <point x="350" y="385"/>
      <point x="350" y="321" type="curve" smooth="yes"/>
      <point x="350" y="209"/>
      <point x="256" y="31"/>
      <point x="170" y="31" type="curve" smooth="yes"/>
      <point x="112" y="31"/>
      <point x="93" y="82"/>
      <point x="91" y="161" type="curve" smooth="yes"/>
      <point x="87" y="318"/>
      <point x="186" y="451"/>
    </contour>
  </outline>
</glyph>
<glyph name="r" format="1">
  <advance width="391.811527059"/>
  <unicode hex="0072"/>
  <outline>
    <contour>
      <point x="97" y="-1" type="curve"/>
      <point x="9" y="-1" type="line"/>
      <point x="88" y="315" type="line"/>
      <point x="88" y="315"/>
      <point x="105" y="375"/>
      <point x="107" y="402" type="curve" smooth="yes"/>
      <point x="109" y="429"/>
      <point x="83" y="429"/>
      <point x="83" y="429" type="curve"/>
      <point x="19" y="352" type="line"/>
      <point x="0" y="355" type="line"/>
      <point x="0" y="355"/>
      <point x="63" y="500"/>
      <point x="114" y="495" type="curve" smooth="yes"/>
      <point x="165" y="490"/>
      <point x="182" y="452"/>
      <point x="177" y="418" type="curve" smooth="yes"/>
      <point x="172" y="384"/>
      <point x="127" y="183"/>
      <point x="127" y="183" type="curve"/>
      <point x="113" y="186" type="line"/>
      <point x="113" y="186"/>
      <point x="227" y="498"/>
      <point x="338" y="492" type="curve" smooth="yes"/>
      <point x="449" y="486"/>
      <point x="458" y="449"/>
      <point x="425" y="405" type="curve" smooth="yes"/>
      <point x="404" y="377"/>
      <point x="371" y="349"/>
      <point x="345" y="348" type="curve"/>
      <point x="308" y="343"/>
      <point x="311" y="405"/>
      <point x="300" y="424" type="curve"/>
      <point x="345" y="437" type="line"/>
      <point x="218" y="373"/>
      <point x="112" y="145"/>
    </contour>
  </outline>
</glyph>
<glyph name="s" format="1">
  <advance width="313.16875"/>
  <unicode hex="0073"/>
  <outline>
    <contour>
      <point x="232" y="504" type="curve" smooth="yes"/>
      <point x="309" y="503"/>
      <point x="346" y="456"/>
      <point x="343" y="422" type="curve" smooth="yes"/>
      <point x="340" y="388"/>
      <point x="331" y="374"/>
      <point x="306" y="374" type="curve" smooth="yes"/>
      <point x="257" y="374"/>
      <point x="248" y="452"/>
      <point x="206" y="452" type="curve" smooth="yes"/>
      <point x="164" y="452"/>
      <point x="144" y="430"/>
      <point x="147" y="405" type="curve" smooth="yes"/>
      <point x="150" y="380"/>
      <point x="291" y="203"/>
      <point x="291" y="135" type="curve" smooth="yes"/>
      <point x="291" y="67"/>
      <point x="232" y="-16"/>
      <point x="138" y="-16" type="curve" smooth="yes"/>
      <point x="86" y="-16"/>
      <point x="1" y="26"/>
      <point x="0" y="67" type="curve" smooth="yes"/>
      <point x="-1" y="108"/>
      <point x="21" y="122"/>
      <point x="55" y="122" type="curve" smooth="yes"/>
      <point x="89" y="122"/>
      <point x="94" y="33"/>
      <point x="147" y="33" type="curve" smooth="yes"/>
      <point x="200" y="33"/>
      <point x="219" y="47"/>
      <point x="219" y="85" type="curve" smooth="yes"/>
      <point x="219" y="135"/>
      <point x="85" y="268"/>
      <point x="84" y="359" type="curve" smooth="yes"/>
      <point x="83" y="450"/>
      <point x="155" y="505"/>
    </contour>
  </outline>
</glyph>
<glyph name="t" format="1">
  <advance width="226"/>
  <unicode hex="0074"/>
  <outline>
    <contour>
      <point x="186" y="581" type="curve"/>
      <point x="212" y="579" type="line"/>
      <point x="70" y="80" type="line"/>
      <point x="70" y="80"/>
      <point x="65" y="34"/>
      <point x="89" y="34" type="curve" smooth="yes"/>
      <point x="133" y="34"/>
      <point x="200" y="121"/>
      <point x="200" y="121" type="curve"/>
      <point x="217" y="99" type="line"/>
      <point x="217" y="99"/>
      <point x="146" y="-14"/>
      <point x="57" y="-14" type="curve" smooth="yes"/>
      <point x="3" y="-14"/>
      <point x="-11" y="10"/>
      <point x="-12" y="48" type="curve" smooth="yes"/>
      <point x="-13" y="86"/>
      <point x="106" y="476"/>
      <point x="106" y="476" type="curve"/>
      <point x="255" y="476" type="line"/>
      <point x="242" y="440" type="line"/>
      <point x="8" y="440" type="line"/>
      <point x="18" y="468" type="line"/>
      <point x="100" y="482"/>
      <point x="136" y="514"/>
    </contour>
  </outline>
</glyph>
<glyph name="v" format="1">
  <advance width="504"/>
  <unicode hex="0076"/>
  <outline>
    <contour>
      <point x="301" y="479" type="line"/>
      <point x="123" y="480" type="line"/>
      <point x="123" y="480"/>
      <point x="-1" y="425"/>
      <point x="0" y="338" type="curve" smooth="yes"/>
      <point x="1" y="251"/>
      <point x="32" y="274"/>
      <point x="43" y="273" type="curve" smooth="yes"/>
      <point x="54" y="272"/>
      <point x="88" y="293"/>
      <point x="85" y="316" type="curve" smooth="yes"/>
      <point x="82" y="339"/>
      <point x="38" y="352"/>
      <point x="40" y="375" type="curve" smooth="yes"/>
      <point x="42" y="398"/>
      <point x="64" y="420"/>
      <point x="95" y="416" type="curve" smooth="yes"/>
      <point x="126" y="412"/>
      <point x="234" y="404"/>
      <point x="234" y="404" type="curve"/>
      <point x="234" y="404"/>
      <point x="70" y="205"/>
      <point x="70" y="118" type="curve" smooth="yes"/>
      <point x="70" y="31"/>
      <point x="146" y="-12"/>
      <point x="217" y="-12" type="curve" smooth="yes"/>
      <point x="413" y="-12"/>
      <point x="504" y="278"/>
      <point x="504" y="391" type="curve" smooth="yes"/>
      <point x="504" y="504"/>
      <point x="469" y="489"/>
      <point x="450" y="489" type="curve" smooth="yes"/>
      <point x="431" y="489"/>
      <point x="402" y="454"/>
      <point x="402" y="437" type="curve" smooth="yes"/>
      <point x="402" y="420"/>
      <point x="458" y="386"/>
      <point x="453" y="309" type="curve" smooth="yes"/>
      <point x="448" y="232"/>
      <point x="365" y="46"/>
      <point x="250" y="46" type="curve" smooth="yes"/>
      <point x="135" y="46"/>
      <point x="161" y="99"/>
      <point x="161" y="131" type="curve" smooth="yes"/>
      <point x="161" y="163"/>
      <point x="220" y="309"/>
      <point x="220" y="309" type="curve"/>
    </contour>
  </outline>
</glyph>
<glyph name="w" format="1">
  <advance width="677.033014962"/>
  <unicode hex="0077"/>
  <outline>
    <contour>
      <point x="301" y="479" type="line"/>
      <point x="123" y="480" type="line"/>
      <point x="123" y="480"/>
      <point x="-1" y="425"/>
      <point x="0" y="338" type="curve" smooth="yes"/>
      <point x="1" y="251"/>
      <point x="32" y="274"/>
      <point x="43" y="273" type="curve" smooth="yes"/>
      <point x="54" y="272"/>
      <point x="88" y="293"/>
      <point x="85" y="316" type="curve" smooth="yes"/>
      <point x="82" y="339"/>
      <point x="38" y="352"/>
      <point x="40" y="375" type="curve" smooth="yes"/>
      <point x="42" y="398"/>
      <point x="64" y="420"/>
      <point x="95" y="416" type="curve" smooth="yes"/>
      <point x="126" y="412"/>
      <point x="234" y="404"/>
      <point x="234" y="404" type="curve"/>
      <point x="234" y="404"/>
      <point x="70" y="205"/>
      <point x="70" y="118" type="curve" smooth="yes"/>
      <point x="70" y="31"/>
      <point x="146" y="-12"/>
      <point x="217" y="-12" type="curve" smooth="yes"/>
      <point x="367" y="-13"/>
      <point x="494" y="278"/>
      <point x="494" y="391" type="curve" smooth="yes"/>
      <point x="494" y="504"/>
      <point x="459" y="489"/>
      <point x="440" y="489" type="curve" smooth="yes"/>
      <point x="421" y="489"/>
      <point x="393" y="454"/>
      <point x="392" y="437" type="curve" smooth="yes"/>
      <point x="388" y="372"/>
      <point x="372" y="351"/>
      <point x="393" y="307" type="curve" smooth="yes"/>
      <point x="426" y="238"/>
      <point x="325" y="46"/>
      <point x="250" y="46" type="curve" smooth="yes"/>
      <point x="135" y="46"/>
      <point x="161" y="99"/>
      <point x="161" y="131" type="curve" smooth="yes"/>
      <point x="161" y="163"/>
      <point x="220" y="309"/>
      <point x="220" y="309" type="curve"/>
    </contour>
    <contour>
      <point x="408" y="171" type="curve"/>
      <point x="380" y="126" type="line"/>
      <point x="380" y="126"/>
      <point x="391" y="-12"/>
      <point x="476" y="-14" type="curve" smooth="yes"/>
      <point x="620" y="-17"/>
      <point x="709" y="276"/>
      <point x="707" y="373" type="curve" smooth="yes"/>
      <point x="705" y="470"/>
      <point x="656" y="491"/>
      <point x="632" y="493" type="curve" smooth="yes"/>
      <point x="608" y="495"/>
      <point x="590" y="480"/>
      <point x="590" y="441" type="curve" smooth="yes"/>
      <point x="590" y="402"/>
      <point x="641" y="366"/>
      <point x="642" y="303" type="curve" smooth="yes"/>
      <point x="643" y="240"/>
      <point x="584" y="58"/>
      <point x="496" y="58" type="curve" smooth="yes"/>
      <point x="419" y="58"/>
      <point x="408" y="171"/>
    </contour>
  </outline>
</glyph>
<glyph name="bullet" format="1">
  <advance width="430"/>
  <unicode hex="2022"/>
  <outline>
    <contour>
      <point x="215" y="486" type="line"/>
      <point x="380" y="320" type="line"/>
      <point x="215" y="156" type="line"/>
      <point x="50" y="320" type="line"/>
    </contour>
  </outline>
</glyph>
<glyph name="dngb:floralheart" format="1">
  <advance width="500"/>
  <unicode hex="2766"/>
  <outline>
    <contour>
      <point x="222" y="457" type="curve" smooth="yes"/>
      <point x="166" y="484"/>
      <point x="169" y="481"/>
      <point x="125" y="481" type="curve" smooth="yes"/>
      <point x="81" y="481"/>
      <point x="154" y="87"/>
      <point x="235" y="67" type="curve" smooth="yes"/>
      <point x="316" y="47"/>
      <point x="522" y="65"/>
      <point x="481" y="116" type="curve" smooth="yes"/>
      <point x="440" y="167"/>
      <point x="387" y="180"/>
      <point x="382" y="144" type="curve" smooth="yes"/>
      <point x="377" y="108"/>
      <point x="385" y="92"/>
      <point x="338" y="95" type="curve" smooth="yes"/>
      <point x="291" y="98"/>
      <point x="258" y="193"/>
      <point x="357" y="271" type="curve" smooth="yes"/>
      <point x="456" y="349"/>
      <point x="499" y="356"/>
      <point x="453" y="417" type="curve" smooth="yes"/>
      <point x="407" y="478"/>
      <point x="278" y="430"/>
    </contour>
    <contour>
      <point x="132" y="560" type="curve" smooth="yes"/>
      <point x="115" y="549"/>
      <point x="115" y="516"/>
      <point x="86" y="519" type="curve" smooth="yes"/>
      <point x="57" y="522"/>
      <point x="37" y="554"/>
      <point x="37" y="554" type="curve"/>
      <point x="37" y="554"/>
      <point x="57" y="627"/>
      <point x="102" y="620" type="curve" smooth="yes"/>
      <point x="147" y="613"/>
      <point x="267" y="524"/>
      <point x="345" y="517" type="curve" smooth="yes"/>
      <point x="423" y="510"/>
      <point x="501" y="520"/>
      <point x="474" y="550" type="curve" smooth="yes"/>
      <point x="447" y="580"/>
      <point x="452" y="628"/>
      <point x="491" y="632" type="curve" smooth="yes"/>
      <point x="530" y="636"/>
      <point x="615" y="580"/>
      <point x="582" y="551" type="curve" smooth="yes"/>
      <point x="549" y="522"/>
      <point x="510" y="484"/>
      <point x="456" y="480" type="curve" smooth="yes"/>
      <point x="402" y="476"/>
      <point x="231" y="491"/>
      <point x="192" y="528" type="curve" smooth="yes"/>
      <point x="153" y="565"/>
      <point x="149" y="571"/>
    </contour>
    <contour>
      <point x="296" y="569" type="line"/>
      <point x="273" y="582"/>
      <point x="277" y="656"/>
      <point x="224" y="660" type="curve" smooth="yes"/>
      <point x="171" y="664"/>
      <point x="257" y="701"/>
      <point x="257" y="701" type="curve"/>
      <point x="322" y="579" type="line"/>
    </contour>
  </outline>
</glyph>
<glyph name="heart" format="1">
  <advance width="711.961395311"/>
  <outline>
    <contour>
      <point x="490" y="0" type="line"/>
      <point x="551" y="187"/>
      <point x="827" y="242"/>
      <point x="827" y="463" type="curve" smooth="yes"/>
      <point x="827" y="587"/>
      <point x="744" y="650"/>
      <point x="648" y="650" type="curve" smooth="yes"/>
      <point x="579" y="650"/>
      <point x="513" y="617"/>
      <point x="480" y="531" type="curve"/>
      <point x="447" y="617"/>
      <point x="381" y="650"/>
      <point x="312" y="650" type="curve" smooth="yes"/>
      <point x="216" y="650"/>
      <point x="133" y="587"/>
      <point x="133" y="463" type="curve" smooth="yes"/>
      <point x="133" y="242"/>
      <point x="409" y="187"/>
      <point x="470" y="0" type="curve"/>
    </contour>
  </outline>
</glyph>
